#!OML:ASF I:\Actors\actors\Patient Classification 2\Patient 1\Session 1\actor1.ASF
:FULLY-SPECIFIED
:DEGREES
576
root -0.296407 17.8957 4.35331 -6.42611 1.64721 0.639368
lowerback 22.4747 -0.726474 1.00498
upperback 3.72463 -0.707575 -0.0287304
thorax -8.47521 -0.364323 -0.400593
lowerneck -20.8325 -2.49418 -2.72259
upperneck 24.4969 -3.66068 3.66628
head 11.576 -1.42496 1.22846
rclavicle -1.2275e-014 1.78906e-015
rhumerus -27.6228 31.636 -87.0915
rradius 106.42
rwrist 21.4962
rhand -41.2629 -54.9194
rfingers 7.12502
rthumb -14.185 -84.4151
lclavicle -1.2275e-014 1.78906e-015
lhumerus -23.9049 -42.3826 80.1507
lradius 107.616
lwrist 7.67182
lhand -33.1893 -53.1621
lfingers 7.12502
lthumb -6.39692 -23.2787
rfemur -6.36486 -2.37678 10.9343
rtibia 34.522
rfoot -24.4605 -3.36425
rtoes -18.0643
lfemur -13.5279 3.03744 -15.19
ltibia 42.5031
lfoot -22.631 1.84157
ltoes -56.443
577
root -0.298733 17.937 4.41719 -6.72319 1.7909 0.48953
lowerback 21.6473 -0.674883 0.935327
upperback 3.46366 -0.657792 0.0580383
thorax -8.32078 -0.338442 -0.285916
lowerneck -20.4672 -2.58027 -2.82016
upperneck 25.0683 -3.792 3.70099
head 11.7314 -1.48874 1.24287
rclavicle -5.91384e-015 -3.97569e-015
rhumerus -29.0858 31.7475 -87.042
rradius 107.971
rwrist 21.322
rhand -41.7956 -54.8385
rfingers 7.12502
rthumb -14.6982 -84.2975
lclavicle -5.91384e-015 -3.97569e-015
lhumerus -25.0712 -42.9067 79.792
lradius 109.08
lwrist 7.43981
lhand -32.4535 -51.8527
lfingers 7.12502
lthumb -5.68659 -21.949
rfemur -5.04168 -2.23971 11.1448
rtibia 33.1058
rfoot -24.327 -3.67586
rtoes -17.5988
lfemur -12.4585 2.88819 -14.9995
ltibia 41.4952
lfoot -22.4074 1.78191
ltoes -56.3449
578
root -0.323842 17.9818 4.49498 -7.15795 2.22488 0.304589
lowerback 20.6994 -0.680527 0.677205
upperback 3.36719 -0.724048 0.155133
thorax -7.91672 -0.361795 -0.0231908
lowerneck -20.1626 -2.65168 -2.85073
upperneck 25.5597 -3.94317 3.80724
head 11.8705 -1.54532 1.26885
rclavicle -6.95746e-015 1.90833e-014
rhumerus -30.281 31.7302 -86.9545
rradius 109.45
rwrist 21.3893
rhand -41.763 -54.9648
rfingers 7.12502
rthumb -14.6668 -84.4261
lclavicle -6.95746e-015 1.90833e-014
lhumerus -25.8814 -43.4186 79.1748
lradius 110.418
lwrist 7.14751
lhand -31.9633 -50.6406
lfingers 7.12502
lthumb -5.2133 -20.7247
rfemur -3.36394 -2.08405 11.5022
rtibia 31.6296
rfoot -24.4921 -4.18856
rtoes -17.2675
lfemur -11.1792 2.56792 -14.6848
ltibia 40.4581
lfoot -22.2542 1.48285
ltoes -56.1458
579
root -0.332679 18.0193 4.5595 -7.47525 2.4537 0.230007
lowerback 19.8973 -0.670719 0.543079
upperback 3.16558 -0.747272 0.15065
thorax -7.7049 -0.370246 0.0474925
lowerneck -19.8181 -2.68309 -2.76743
upperneck 26.0481 -4.03892 3.78409
head 11.9932 -1.58325 1.23677
rclavicle 1.3418e-014 5.56597e-015
rhumerus -31.4319 31.7182 -86.8987
rradius 110.851
rwrist 21.5394
rhand -41.5736 -55.3972
rfingers 7.12502
rthumb -14.4843 -84.8716
lclavicle 1.3418e-014 5.56597e-015
lhumerus -26.6284 -43.8582 78.5885
lradius 111.667
lwrist 7.05691
lhand -31.9116 -50.3467
lfingers 7.12502
lthumb -5.16339 -20.4296
rfemur -1.95435 -1.96098 11.6505
rtibia 30.1381
rfoot -24.4178 -4.591
rtoes -17.152
lfemur -10.0808 2.23848 -14.5938
ltibia 39.4563
lfoot -22.1919 1.55187
ltoes -56.1889
580
root -0.333129 18.0523 4.6156 -7.73818 2.55206 0.16435
lowerback 19.3926 -0.693219 0.65009
upperback 2.7998 -0.769263 0.0226533
thorax -7.8342 -0.386664 -0.148635
lowerneck -19.4448 -2.69137 -2.68968
upperneck 26.6462 -4.13321 3.85222
head 12.1565 -1.60807 1.24133
rclavicle -5.09386e-016 -1.21259e-014
rhumerus -32.7364 31.7012 -87.1398
rradius 112.192
rwrist 21.5763
rhand -41.5417 -55.5324
rfingers 7.12502
rthumb -14.4536 -85.0091
lclavicle -5.09386e-016 -1.21259e-014
lhumerus -27.4514 -44.2879 77.9836
lradius 112.867
lwrist 7.07068
lhand -31.8424 -50.034
lfingers 7.12502
lthumb -5.09654 -20.1153
rfemur -0.692984 -1.80809 11.7598
rtibia 28.6506
rfoot -24.2065 -4.99367
rtoes -17.2309
lfemur -9.07864 1.98884 -14.5475
ltibia 38.4836
lfoot -22.1179 1.75633
ltoes -56.4536
581
root -0.332792 18.0827 4.67093 -7.97447 2.62393 0.096566
lowerback 18.7066 -0.662291 0.621127
upperback 2.57462 -0.740752 0.0172351
thorax -7.70629 -0.3731 -0.150669
lowerneck -19.1668 -2.75562 -2.84209
upperneck 27.1189 -4.254 4.01724
head 12.3003 -1.65509 1.31602
rclavicle 5.22431e-015 5.36719e-015
rhumerus -33.7138 31.6947 -87.1217
rradius 113.489
rwrist 21.4821
rhand -41.5169 -55.3592
rfingers 7.12502
rthumb -14.4297 -84.8376
lclavicle 5.22431e-015 5.36719e-015
lhumerus -27.8567 -44.6021 77.3576
lradius 113.975
lwrist 7.09539
lhand -31.6982 -49.5853
lfingers 7.12502
lthumb -4.95733 -19.6633
rfemur 0.501788 -1.62881 11.8789
rtibia 27.2206
rfoot -24.0336 -5.39378
rtoes -17.3269
lfemur -8.14117 1.73756 -14.5015
ltibia 37.59
lfoot -22.0594 1.93151
ltoes -56.612
582
root -0.334209 18.1105 4.72287 -8.23882 2.73507 0.049151
lowerback 18.0864 -0.585842 0.371719
upperback 2.39507 -0.683865 0.138257
thorax -7.5581 -0.337506 0.102266
lowerneck -18.8768 -2.85415 -3.05256
upperneck 27.4775 -4.36781 4.07372
head 12.3956 -1.72102 1.36029
rclavicle 7.36124e-015 1.45113e-014
rhumerus -34.5568 31.6706 -86.9414
rradius 114.7
rwrist 21.4866
rhand -41.3971 -54.9186
rfingers 7.12502
rthumb -14.3143 -84.4052
lclavicle 7.36124e-015 1.45113e-014
lhumerus -28.121 -44.8204 76.9352
lradius 115.011
lwrist 7.15158
lhand -31.4765 -49.0453
lfingers 7.12502
lthumb -4.74322 -19.1184
rfemur 1.71259 -1.42103 11.9896
rtibia 25.824
rfoot -23.9339 -5.7635
rtoes -16.9985
lfemur -7.21901 1.36263 -14.5019
ltibia 36.7469
lfoot -22.0441 2.18437
ltoes -56.6642
583
root -0.33677 18.1365 4.77073 -8.51283 2.8548 -0.025517
lowerback 17.661 -0.516234 0.142785
upperback 2.15192 -0.628853 0.254707
thorax -7.58465 -0.302975 0.341557
lowerneck -18.5144 -2.92274 -3.08234
upperneck 27.8505 -4.44172 3.93818
head 12.4705 -1.7769 1.30825
rclavicle 5.07522e-015 1.02374e-014
rhumerus -35.4159 31.6 -86.7965
rradius 115.821
rwrist 21.4374
rhand -41.4721 -54.571
rfingers 7.12502
rthumb -14.3865 -84.0524
lclavicle 5.07522e-015 1.02374e-014
lhumerus -28.475 -45.0209 76.6669
lradius 115.975
lwrist 7.10927
lhand -31.3734 -48.6954
lfingers 7.12502
lthumb -4.64371 -18.7663
rfemur 2.9097 -1.15108 12.1512
rtibia 24.4526
rfoot -23.8654 -6.09924
rtoes -16.2314
lfemur -6.33339 0.969199 -14.4762
ltibia 35.9422
lfoot -21.9674 2.43282
ltoes -56.6749
584
root -0.338572 18.1626 4.82026 -8.68738 2.89227 -0.0133699
lowerback 17.0613 -0.444842 -0.0138687
upperback 1.97094 -0.567067 0.243285
thorax -7.44985 -0.269223 0.399123
lowerneck -18.3139 -2.9755 -3.04447
upperneck 28.2669 -4.5439 3.90028
head 12.5993 -1.82224 1.27591
rclavicle 2.90101e-015 8.24956e-015
rhumerus -36.023 31.4747 -86.6388
rradius 116.848
rwrist 21.362
rhand -41.5065 -54.6481
rfingers 7.12502
rthumb -14.4197 -84.1272
lclavicle 2.90101e-015 8.24956e-015
lhumerus -28.6142 -45.2313 76.1731
lradius 116.865
lwrist 7.08165
lhand -31.4447 -48.4951
lfingers 7.12502
lthumb -4.71252 -18.5675
rfemur 3.96903 -0.859075 12.215
rtibia 23.112
rfoot -23.7338 -6.36273
rtoes -15.4537
lfemur -5.55526 0.731736 -14.5235
ltibia 35.18
lfoot -21.8275 2.6272
ltoes -56.6267
585
root -0.34217 18.1866 4.86784 -8.83098 2.88373 0.0487966
lowerback 16.526 -0.366473 -0.197354
upperback 1.79489 -0.500784 0.20772
thorax -7.34403 -0.23265 0.446432
lowerneck -18.2135 -3.04168 -3.19377
upperneck 28.7034 -4.6748 4.08569
head 12.7715 -1.86894 1.35576
rclavicle -1.21445e-014 -7.95139e-016
rhumerus -36.5313 31.4043 -86.4681
rradius 117.816
rwrist 21.5131
rhand -41.0528 -55.1666
rfingers 7.12502
rthumb -13.9825 -84.6763
lclavicle -1.21445e-014 -7.95139e-016
lhumerus -28.6304 -45.4864 75.6397
lradius 117.707
lwrist 7.33322
lhand -31.5247 -47.9965
lfingers 7.12502
lthumb -4.78983 -18.0706
rfemur 4.96054 -0.53437 12.2408
rtibia 21.7995
rfoot -23.5413 -6.70616
rtoes -14.8172
lfemur -4.83683 0.556439 -14.6106
ltibia 34.4674
lfoot -21.6823 2.84343
ltoes -56.5115
586
root -0.347275 18.2067 4.9105 -8.9953 2.8565 0.0423871
lowerback 16.1734 -0.289999 -0.311102
upperback 1.59233 -0.421548 0.189825
thorax -7.36735 -0.190938 0.4725
lowerneck -18.0561 -3.08595 -3.30291
upperneck 29.0782 -4.7596 4.18712
head 12.9024 -1.90366 1.40472
rclavicle 9.5603e-015 3.97569e-016
rhumerus -37.075 31.3689 -86.3715
rradius 118.745
rwrist 21.6445
rhand -40.656 -55.7243
rfingers 7.12502
rthumb -13.6001 -85.2601
lclavicle 9.5603e-015 3.97569e-016
lhumerus -28.6115 -45.782 75.1645
lradius 118.525
lwrist 7.77156
lhand -31.4766 -47.3348
lfingers 7.12502
lthumb -4.74334 -17.4079
rfemur 5.9389 -0.11316 12.384
rtibia 20.5076
rfoot -23.3894 -7.20591
rtoes -14.4583
lfemur -4.14449 0.353836 -14.6208
ltibia 33.8037
lfoot -21.5211 3.05201
ltoes -56.3507
587
root -0.351976 18.2259 4.95115 -9.11495 2.85604 0.0115939
lowerback 15.7925 -0.237613 -0.355438
upperback 1.39939 -0.363606 0.139158
thorax -7.36461 -0.162146 0.429159
lowerneck -17.8323 -3.10337 -3.26329
upperneck 29.4198 -4.82554 4.19856
head 12.9987 -1.92693 1.39717
rclavicle 9.24853e-015 8.69683e-016
rhumerus -37.5563 31.3378 -86.383
rradius 119.611
rwrist 21.4909
rhand -40.8193 -56.0919
rfingers 7.12502
rthumb -13.7575 -85.6171
lclavicle 9.24853e-015 8.69683e-016
lhumerus -28.5649 -46.0444 74.6856
lradius 119.28
lwrist 8.08157
lhand -31.3589 -46.8279
lfingers 7.12502
lthumb -4.62968 -16.8985
rfemur 6.86691 0.279667 12.5526
rtibia 19.2251
rfoot -23.291 -7.67092
rtoes -14.0553
lfemur -3.53477 0.154837 -14.6088
ltibia 33.188
lfoot -21.3906 3.19882
ltoes -56.2882
588
root -0.355549 18.246 4.98956 -9.155 2.90751 -0.054565
lowerback 15.3371 -0.234803 -0.346428
upperback 1.22647 -0.361093 0.0919647
thorax -7.29798 -0.162087 0.371136
lowerneck -17.6376 -3.10732 -3.25014
upperneck 29.775 -4.87511 4.24551
head 13.1087 -1.94055 1.41064
rclavicle 4.25167e-015 -6.11884e-015
rhumerus -37.9717 31.3823 -86.4662
rradius 120.422
rwrist 21.1918
rhand -40.3708 -56.1543
rfingers 7.12502
rthumb -13.3252 -85.7083
lclavicle 4.25167e-015 -6.11884e-015
lhumerus -28.5068 -46.2171 74.2323
lradius 119.967
lwrist 8.23902
lhand -31.2752 -46.4686
lfingers 7.12502
lthumb -4.54886 -16.5374
rfemur 7.71052 0.566608 12.7348
rtibia 17.9452
rfoot -23.1735 -8.07789
rtoes -13.3893
lfemur -3.05931 -0.0718083 -14.5712
ltibia 32.6283
lfoot -21.309 3.35531
ltoes -56.2827
589
root -0.359024 18.2657 5.02619 -9.14718 2.9611 -0.167036
lowerback 14.9122 -0.241526 -0.276316
upperback 1.04822 -0.35871 0.0753453
thorax -7.25335 -0.163482 0.311412
lowerneck -17.4814 -3.09884 -3.22291
upperneck 30.1001 -4.87064 4.17879
head 13.2082 -1.94383 1.38567
rclavicle -6.72558e-015 -7.67806e-015
rhumerus -38.4811 31.4882 -86.6145
rradius 121.197
rwrist 20.9544
rhand -40.3181 -56.0373
rfingers 7.12502
rthumb -13.2745 -85.5946
lclavicle -6.72558e-015 -7.67806e-015
lhumerus -28.4474 -46.3727 73.8734
lradius 120.554
lwrist 8.45705
lhand -31.1047 -46.358
lfingers 7.12502
lthumb -4.38423 -16.4233
rfemur 8.47536 0.858732 12.9783
rtibia 16.6883
rfoot -23.0334 -8.58566
rtoes -13.1787
lfemur -2.67867 -0.373846 -14.5013
ltibia 32.1244
lfoot -21.2507 3.57897
ltoes -56.2099
